<?xml version="1.0" encoding="utf-8"?>
<!-- Generator: Adobe Illustrator 19.0.0, SVG Export Plug-In . SVG Version: 6.00 Build 0)  -->
<svg version="1.1" id="Layer_1" xmlns="http://www.w3.org/2000/svg" xmlns:xlink="http://www.w3.org/1999/xlink" x="0px" y="0px"
	 viewBox="0 0 1920 1080" style="enable-background:new 0 0 1920 1080;" xml:space="preserve">
<style type="text/css">
	.st0{clip-path:url(#SVGID_2_);}
	.st1{fill:#98DFEA;}
	.st2{fill:#07BEB8;}
	.st3{fill:#F8F4EB;}
</style>
<title>Artboard 1</title>
<g>
	<defs>
		<rect id="SVGID_1_" x="303.2" y="0" width="1619.8" height="1080"/>
	</defs>
	<clipPath id="SVGID_2_">
		<use xlink:href="#SVGID_1_"  style="overflow:visible;"/>
	</clipPath>
	<g class="st0">
		<path class="st1" d="M1198.1,63.2c1.3-21.1,2.7-42.1,4-63.2l314.2,0c-3.8,11-10.4,22.1-15.7,29.9c-20.4,30-51.8,52.2-86.6,59.1
			c-16.6,3.3-34,3.4-49.5,10.3c-24,10.7-39.4,35.5-61.5,49.8c-31.9,20.6-80.8,12.2-97.9-22.7C1195.7,107.3,1196.8,84.6,1198.1,63.2z
			"/>
		<path class="st2" d="M1653.3,161.4c8.5-57.6,24.5-115.8,59.3-161.4L1923,0v215.2c-54.2,31-114.6,49.8-176.8,55.1
			c-27.6,2.3-58.8,0.5-78-20.3C1647.5,227.5,1648.8,192.1,1653.3,161.4z"/>
	</g>
</g>
<path class="st3" d="M627.6,0c9.4,55-0.9,113.6-29.3,161.1c-13.6,22.8-31.3,43.6-39.3,69.2c-17.9,57.5,18.8,117.9,60.8,159.8
	s92.7,78.5,114.8,134.4c23.8,60.1,5.8,135.4-42.3,176.8c-34.2,29.5-79.9,41.5-124.3,40.8s-87.8-12.9-129.9-27.5
	C279.8,659.7,134.2,571.3,3,463.3V0L627.6,0z"/>
<path class="st2" d="M416.6,0c-8.3,16.6-20.7,30.8-36.1,41.2c-24.8,16.3-55.4,21-83.9,12.8c-19.3-5.7-36.9-17.2-56.8-20.2
	c-29.6-4.5-58.7,10.5-88.6,12.4C116,48.3,81.2,29.2,60.1,0L416.6,0z"/>
</svg>
